
<svg xmlns="http://www.w3.org/2000/svg" viewBox="0 0 310.53 65.24"><g id="レイヤー_2" data-name="レイヤー 2"><g id="レイヤー_1-2" data-name="レイヤー 1"><path d="M31.61,0V60.86l13.78,4.38V14.18c0-2.38,1.06-4,2.79-3.43,2.24.63,2.68,2.83,2.68,5.22V36.35c8.59,4.15,15.34,0,15.34-10.94,0-11.23-4-16.21-15.61-20.22A165.59,165.59,0,0,0,31.61,0Z"/><path d="M48,56.34l22.15-7.89c2.51-.9,2.9-2.18.86-2.85a15.09,15.09,0,0,0-8.25.43L48,51.23V43l.85-.29a50.92,50.92,0,0,1,10.26-2.18,43.9,43.9,0,0,1,19.11,2.28c6.5,2,7.23,5.08,5.58,7.16s-5.7,3.57-5.7,3.57L48,64.31Z"/><path d="M6.35,55.5c-6.67-1.88-7.78-5.78-4.75-8a33,33,0,0,1,7.6-3.65l19.74-7v8L14.73,49.88c-2.51.9-2.89,2.18-.85,2.84a15,15,0,0,0,8.25-.42l6.81-2.47V57l-1.35.22A44.72,44.72,0,0,1,6.35,55.5"/><path d="M76.73,61.9A2.65,2.65,0,0,1,77.51,60a2.62,2.62,0,0,1,1.9-.79,2.7,2.7,0,0,1,2.68,2.68,2.68,2.68,0,0,1-5.36,0Zm2.68,3.22a3.23,3.23,0,0,0,0-6.45,3.23,3.23,0,1,0,0,6.45"/><path d="M80.29,61.09a.46.46,0,0,1-.16.41.88.88,0,0,1-.47.11h-1v-1h1.06a.88.88,0,0,1,.35.06A.44.44,0,0,1,80.29,61.09ZM81,63.4a.26.26,0,0,1-.11-.16c0-.06,0-.14,0-.27l0-.46a.79.79,0,0,0-.12-.48.91.91,0,0,0-.21-.18.72.72,0,0,0,.26-.26.92.92,0,0,0,.15-.55.89.89,0,0,0-.53-.88,1.72,1.72,0,0,0-.68-.12H78v3.59h.62V62.16h1a1.23,1.23,0,0,1,.39.05.43.43,0,0,1,.2.39l0,.57c0,.13,0,.23,0,.28a1.27,1.27,0,0,0,0,.14l0,0H81v-.21l0,0"/><path d="M238.12,15.44H211.83c-7.62,0-11.35,4.7-11.35,10.82V44.85c0,3.79-1.8,6.51-5.59,6.51H170.18a.29.29,0,0,0-.28.28v3.74a.29.29,0,0,0,.28.28h27.57c7.62,0,11.36-4.69,11.36-10.8V26.25c0-3.78,1.79-6.51,5.58-6.51h23.43a.28.28,0,0,0,.28-.28V15.73a.29.29,0,0,0-.28-.29"/><path d="M160.46,15.45H112.91a.29.29,0,0,0-.29.28v3.73a.28.28,0,0,0,.29.28h44.7c3.79,0,5.58,2.73,5.58,6.52s-1.79,6.51-5.58,6.51H122.25c-5.49,0-9.63,4.61-9.63,10.73V55.38a.27.27,0,0,0,.28.28H121a.27.27,0,0,0,.28-.28V43.5c0-3.78,2.19-6.43,5.32-6.43h33.89c7.63,0,11.36-4.68,11.36-10.8s-3.73-10.82-11.36-10.82"/><path d="M300.53,47.07h-8.06a.3.3,0,0,1-.3-.28V19.72c0-4.15-2.87-5.51-6.91-3L236.79,46.46c-1.9,1.17-2.54,2.5-2.08,3.47s1.44,1.43,3.54,1.43h45a.29.29,0,0,1,.26.21v3.8a.29.29,0,0,0,.28.29h8.09a.29.29,0,0,0,.29-.29V51.65a.29.29,0,0,1,.28-.29h8.07a.29.29,0,0,0,.29-.28V47.35a.29.29,0,0,0-.29-.28m-17-.31a.29.29,0,0,1-.28.3H245.51c-.3,0-.46-.08-.51-.2s.06-.3.28-.46l37.55-23.12c.26-.16.7-.13.7.38Z"/><path d="M304.63,52.5a2.68,2.68,0,0,1,2.68-2.68,2.6,2.6,0,0,1,1.89.79A2.63,2.63,0,0,1,310,52.5a2.67,2.67,0,0,1-2.67,2.68,2.66,2.66,0,0,1-2.68-2.68Zm2.68,3.23a3.21,3.21,0,0,0,2.28-.95,3.22,3.22,0,0,0,0-4.55,3.18,3.18,0,0,0-2.28-1A3.22,3.22,0,0,0,305,54.78a3.19,3.19,0,0,0,2.28.95"/><path d="M308.18,51.69a.45.45,0,0,1-.16.41.8.8,0,0,1-.47.11h-1v-1h1.05a.85.85,0,0,1,.35.06A.43.43,0,0,1,308.18,51.69Zm.71,2.31s-.08-.07-.11-.16,0-.14,0-.27l0-.46a.79.79,0,0,0-.13-.48.71.71,0,0,0-.21-.17,1,1,0,0,0,.27-.27.91.91,0,0,0,.14-.54.87.87,0,0,0-.53-.88,1.53,1.53,0,0,0-.68-.12h-1.67v3.58h.63V52.76h1a.9.9,0,0,1,.39.06.37.37,0,0,1,.2.38l0,.57c0,.14,0,.23,0,.28a.46.46,0,0,0,.05.14l0,0h.69V54l-.05,0"/></g></g></svg>