
<svg xmlns="http://www.w3.org/2000/svg" viewBox="0 0 280.98 59.21"><defs><style>.cls-1{fill:#000;}</style></defs><g id="レイヤー_2" data-name="レイヤー 2"><g id="NINTENDO_SWITCH_LOGO" data-name="NINTENDO SWITCH LOGO"><path class="cls-1" d="M9.22,17.76a5.57,5.57,0,1,0,5.56-5.56A5.56,5.56,0,0,0,9.22,17.76ZM44,0H34.87a.38.38,0,0,0-.39.39V58.77a.44.44,0,0,0,.43.44H44A15.18,15.18,0,0,0,59.21,44V15.18A15.18,15.18,0,0,0,44,0Zm2.16,38.55a6,6,0,1,1,6-6A6,6,0,0,1,46.19,38.55ZM28.12,0H15.18A15.18,15.18,0,0,0,0,15.18V44A15.18,15.18,0,0,0,15.18,59.21H28.12a.44.44,0,0,0,.44-.44V.43A.44.44,0,0,0,28.12,0ZM23.78,54.43h-8.6A10.4,10.4,0,0,1,4.77,44V15.18A10.41,10.41,0,0,1,15.18,4.77h8.6ZM121.34,6.79l8.25,11.11h3.28V1.28h-3.38V12.2L121.32,1.28H118V17.9h3.37Zm-34,31.91C82.79,38,79.86,37.12,79.86,35c0-2.44,3.26-3.38,7.63-3.38a26.93,26.93,0,0,1,9.6,2.16l2.22-5.42A34.9,34.9,0,0,0,87.17,26c-6.77,0-14,3.31-14,9.43,0,5,3.5,7.5,12.49,9,6.34,1.09,9.83,1.7,9.73,4.42-.06,1.5-1.22,4-8.36,4a22.26,22.26,0,0,1-11.2-2.93l-3,5.36a30.8,30.8,0,0,0,13.72,3.32c10,0,15.24-3.46,15.24-10C101.85,44.82,100.58,40.88,87.32,38.7ZM77.68,6.79,85.93,17.9h3.28V1.28H85.84V12.2L77.66,1.28H74.31V17.9h3.37Zm59.41,42.35-6.64-22.75h-5.56l-6.61,22.67-6-22.67h-6.82l8.87,31.35h7.53l5.85-20.65,5.8,20.65h7.57L150,26.39h-6.83ZM105.43,1.28h-3.69V17.9h3.69Zm52.32,56.46h7V26.39h-7ZM261.6.72a8.87,8.87,0,1,0,8.85,8.87A8.87,8.87,0,0,0,261.6.72Zm0,14a5.17,5.17,0,1,1,5.16-5.17A5.17,5.17,0,0,1,261.6,14.76Zm1.13,24H248.09V26.39H241.6V57.74h6.49V45.24h14.64v12.5h6.49V26.39h-6.49Zm17,14.7-1.08,3.14-1.08-3.14h-1.19v4.29h.77V54.45l1.12,3.26v0h.74l0,0,1.12-3.26v3.29H281V53.45ZM233.46,1.28h-6.87V17.9h6.87A8.44,8.44,0,0,0,242,9.59,8.44,8.44,0,0,0,233.46,1.28Zm.17,13.13H230V4.77h3.63a4.82,4.82,0,0,1,0,9.64ZM272,54.27h1.33v3.47h.83V54.27h1.29v-.82H272ZM220.73,32.34a10.06,10.06,0,0,1,8.61,4.87l5.1-4.44a16.73,16.73,0,1,0,0,18.66L229.34,47a10.07,10.07,0,0,1-8.61,4.86,9.76,9.76,0,1,1,0-19.52ZM183.86,14.82h-9.55v-3.9h8.83v-3h-8.83V4.33h9.55v-3H170.94V17.9h12.92ZM172.38,33.05h10V57.74h6.74V33.05h9.79V26.39H172.38ZM158.78,1.28H144.7V4.81H150V17.9h3.58V4.81h5.19ZM212.53,17.9V1.28h-3.37V12.2L201,1.28h-3.36V17.9H201V6.79l8.25,11.11Z"/></g></g></svg>